<svg xmlns="http://www.w3.org/2000/svg" width="256" height="256" viewBox="0 0 100 100"><rect width="100" height="100" rx="50" fill="#000000"></rect><path fill="#ffffff" d="M50.44 82.04L50.44 82.04Q44.04 82.04 39.05 80.26Q34.07 78.48 29.53 74.39L29.53 74.39Q28.55 73.67 28.06 72.65Q27.57 71.63 27.57 70.56L27.57 70.56Q27.57 68.87 28.82 67.53Q30.06 66.20 31.93 66.20L31.93 66.20Q33.36 66.20 34.60 67.18L34.60 67.18Q37.98 70.29 41.68 71.89Q45.37 73.50 50.36 73.50L50.36 73.50Q53.92 73.50 56.90 72.34Q59.88 71.18 61.66 69.22Q63.44 67.27 63.44 64.68L63.44 64.68Q63.44 61.48 61.61 59.39Q59.79 57.30 56.36 55.92Q52.94 54.54 48.13 53.56L48.13 53.56Q43.68 52.76 40.17 51.33Q36.65 49.91 34.16 47.73Q31.67 45.55 30.33 42.52Q29.00 39.50 29.00 35.49L29.00 35.49Q29.00 30.06 31.84 26.15Q34.69 22.23 39.59 20.10Q44.48 17.96 50.62 17.96L50.62 17.96Q56.23 17.96 61.13 19.70Q66.02 21.43 69.05 24.37L69.05 24.37Q71.18 26.24 71.18 28.37L71.18 28.37Q71.18 29.97 69.89 31.35Q68.60 32.73 66.91 32.73L66.91 32.73Q65.66 32.73 64.77 32.02L64.77 32.02Q63.35 30.51 60.95 29.31Q58.54 28.11 55.83 27.30Q53.11 26.50 50.62 26.50L50.62 26.50Q46.62 26.50 43.77 27.62Q40.92 28.73 39.41 30.64Q37.90 32.56 37.90 35.14L37.90 35.14Q37.90 38.16 39.63 40.12Q41.37 42.08 44.48 43.28Q47.60 44.48 51.60 45.46L51.60 45.46Q56.50 46.53 60.37 47.86Q64.24 49.20 66.91 51.29Q69.58 53.38 71.00 56.50Q72.43 59.61 72.43 64.24L72.43 64.24Q72.43 69.58 69.40 73.58Q66.38 77.59 61.44 79.81Q56.50 82.04 50.44 82.04Z"></path></svg>